# xmcd
#
# Track frame offsets:
#	150
#	19125
#	34506
#	50157
#	65493
#	81810
#	96429
#	110748
#	128235
#	142749
#	165231
#	179619
#
# Disc length: 2559 seconds
# Revision: 1
# Processed by: cddbd v1.5.2PL0 Copyright (c) Steve Scherf et al.
# Submitted via: dBpowerAMP V12.0
#
DISCID=a109fd0c
DTITLE=H.P. Lange - The Delta Connection
DYEAR=2005
DGENRE=Blues
TTITLE0=Mellow Peaches
TTITLE1=Poor Black Mattie
TTITLE2=Pony Blues
TTITLE3=Whiskey Take Me
TTITLE4=Jumper on the Line
TTITLE5=Crossroads Blues
TTITLE6=Miss Maybelle
TTITLE7=Aberdeen Blues
TTITLE8=Keep Your Lamp Trimmed and Burning
TTITLE9=France Chance
TTITLE10=Be With You
TTITLE11=Shortnin Bread
EXTD=
EXTT0=
EXTT1=
EXTT2=
EXTT3=
EXTT4=
EXTT5=
EXTT6=
EXTT7=
EXTT8=
EXTT9=
EXTT10=
EXTT11=
PLAYORDER=
